<?xml version="1.0" encoding="UTF-8"?>
<svg xmlns="http://www.w3.org/2000/svg" viewBox="0 0 197.27 45.12">
  <defs>
    <style>
      .cls-1 {
        fill: #643717;
      }

      .cls-2 {
        isolation: isolate;
      }

      .cls-3 {
        fill: #643514;
      }

      .cls-4 {
        fill: #f04e23;
      }

      .cls-5 {
        fill: #d1d3d4;
      }

      .cls-6 {
        mix-blend-mode: multiply;
      }
    </style>
  </defs>
  <g class="cls-2">
    <g id="Layer_2" data-name="Layer 2">
      <g id="Layer_1-2" data-name="Layer 1">
        <g>
          <g class="cls-6">
            <g>
              <path class="cls-5" d="M46.78,18.62v5.66h10.98v4.89h-10.98v9.02h-6.22V13.73h18.14v4.89h-11.92Z"/>
              <path class="cls-5" d="M67.68,22.54c1.29-2.2,3.43-3.43,6.12-3.46v5.45c-3.5-.31-5.8,1.33-6.12,3.99v9.68h-6.05V19.36h6.05v3.18Z"/>
              <path class="cls-5" d="M94.32,30.4h-13.25c.59,2.24,2.2,3.5,4.44,3.5,1.64,0,3.25-.66,4.51-1.92l3.18,3.11c-1.92,2.1-4.75,3.32-8.21,3.32-6.15,0-10-3.85-10-9.58s3.99-9.68,9.82-9.68c6.64,0,9.93,4.37,9.51,11.26Zm-5.8-3.25c0-2.31-1.47-3.81-3.64-3.81s-3.53,1.54-3.92,3.81h7.55Z"/>
              <path class="cls-5" d="M112.11,21.21l-2.06,3.92c-2.27-1.22-4.37-1.89-5.94-1.89-1.08,0-1.85,.42-1.85,1.29,0,2.59,9.93,1.33,9.89,7.9,0,3.88-3.39,6.01-7.93,6.01-3.15,0-6.19-.91-8.46-2.66l1.92-3.85c2.13,1.5,4.58,2.34,6.68,2.34,1.19,0,2.06-.42,2.06-1.29,0-2.76-9.75-1.33-9.72-7.94,0-3.88,3.29-5.98,7.66-5.98,2.73,0,5.45,.77,7.76,2.13Z"/>
              <path class="cls-5" d="M134.98,26.31v11.89h-6.05v-10.21c0-2.2-1.26-3.57-3.32-3.57-2.38,0-3.84,1.89-3.84,4.47v9.3h-6.05V12.26h6.05v10.21c1.33-2.24,3.53-3.36,6.33-3.39,4.16,0,6.89,2.83,6.89,7.24Z"/>
              <path class="cls-5" d="M149.73,13.73c6.05,0,9.54,3.01,9.54,8.22s-3.5,8.53-9.54,8.53h-6.4v7.73h-2.8V13.73h9.19Zm-6.4,14.05h6.29c4.4,0,6.96-1.96,6.96-5.77s-2.55-5.59-6.96-5.59h-6.29v11.36Z"/>
              <path class="cls-5" d="M174.97,35.37c-1.47,1.99-3.81,2.97-6.75,2.97-3.81,0-6.26-2.45-6.26-5.63s2.55-5.24,6.89-5.28h6.05v-1.08c0-2.69-1.68-4.3-4.93-4.3-2.03,0-3.92,.77-5.84,2.1l-1.15-1.99c2.38-1.57,4.37-2.48,7.52-2.48,4.54,0,7.06,2.41,7.1,6.36l.04,12.17h-2.66v-2.83Zm-.04-3.53v-2.2h-5.73c-3.08,0-4.68,.94-4.68,2.97s1.64,3.36,4.23,3.36c3.11,0,5.49-1.57,6.19-4.12Z"/>
              <path class="cls-5" d="M188.81,40.82c-1.15,2.83-3.08,4.3-5.52,4.3-1.54,0-2.76-.46-3.88-1.36l1.15-2.27c.84,.59,1.68,.87,2.59,.87,1.43,0,2.62-.87,3.36-2.59l.77-1.71-7.62-18.28h2.87l6.12,15.21,5.84-15.21h2.8l-8.46,21.04Z"/>
            </g>
          </g>
          <g>
            <g>
              <path class="cls-4" d="M46.78,18.01v5.66h10.98v4.89h-10.98v9.02h-6.22V13.12h18.14v4.89h-11.92Z"/>
              <path class="cls-4" d="M67.68,21.93c1.29-2.2,3.43-3.43,6.12-3.46v5.45c-3.5-.31-5.8,1.33-6.12,3.99v9.68h-6.05V18.75h6.05v3.18Z"/>
              <path class="cls-4" d="M94.32,29.79h-13.25c.59,2.24,2.2,3.5,4.44,3.5,1.64,0,3.25-.66,4.51-1.92l3.18,3.11c-1.92,2.1-4.75,3.32-8.21,3.32-6.15,0-10-3.85-10-9.58s3.99-9.68,9.82-9.68c6.64,0,9.93,4.37,9.51,11.26Zm-5.8-3.25c0-2.31-1.47-3.81-3.64-3.81s-3.53,1.54-3.92,3.81h7.55Z"/>
              <path class="cls-4" d="M112.11,20.6l-2.06,3.92c-2.27-1.22-4.37-1.89-5.94-1.89-1.08,0-1.85,.42-1.85,1.29,0,2.59,9.93,1.33,9.89,7.9,0,3.88-3.39,6.01-7.93,6.01-3.15,0-6.19-.91-8.46-2.66l1.92-3.84c2.13,1.5,4.58,2.34,6.68,2.34,1.19,0,2.06-.42,2.06-1.29,0-2.76-9.75-1.33-9.72-7.94,0-3.88,3.29-5.98,7.66-5.98,2.73,0,5.45,.77,7.76,2.13Z"/>
              <path class="cls-4" d="M134.98,25.7v11.89h-6.05v-10.21c0-2.2-1.26-3.57-3.32-3.57-2.38,0-3.84,1.89-3.84,4.47v9.3h-6.05V11.65h6.05v10.21c1.33-2.24,3.53-3.36,6.33-3.39,4.16,0,6.89,2.83,6.89,7.24Z"/>
              <path class="cls-3" d="M149.73,13.12c6.05,0,9.54,3.01,9.54,8.22s-3.5,8.53-9.54,8.53h-6.4v7.73h-2.8V13.12h9.19Zm-6.4,14.05h6.29c4.4,0,6.96-1.96,6.96-5.77s-2.55-5.59-6.96-5.59h-6.29v11.36Z"/>
              <path class="cls-3" d="M174.97,34.76c-1.47,1.99-3.81,2.97-6.75,2.97-3.81,0-6.26-2.45-6.26-5.63s2.55-5.24,6.89-5.28h6.05v-1.08c0-2.69-1.68-4.3-4.93-4.3-2.03,0-3.92,.77-5.84,2.1l-1.15-1.99c2.38-1.57,4.37-2.48,7.52-2.48,4.54,0,7.06,2.41,7.1,6.36l.04,12.17h-2.66v-2.83Zm-.04-3.53v-2.2h-5.73c-3.08,0-4.68,.94-4.68,2.97s1.64,3.36,4.23,3.36c3.11,0,5.49-1.57,6.19-4.12Z"/>
              <path class="cls-3" d="M188.81,40.21c-1.15,2.83-3.08,4.3-5.52,4.3-1.54,0-2.76-.45-3.88-1.36l1.15-2.27c.84,.59,1.68,.87,2.59,.87,1.43,0,2.62-.87,3.36-2.59l.77-1.71-7.62-18.28h2.87l6.12,15.21,5.84-15.21h2.8l-8.46,21.04Z"/>
            </g>
            <g>
              <path class="cls-5" d="M15.52,38.07s-2.55-19.9,19.9-24.49c0,0-1.02,17.86-19.9,24.49Z"/>
              <path class="cls-5" d="M13.66,22.6S7.48,10.94,23.6,1c0,0,3.09,18.52-9.95,21.6Z"/>
              <path class="cls-5" d="M12.26,33.24S13.29,21,.02,18.45c0,0-1.02,14.29,12.24,14.79Z"/>
            </g>
            <g>
              <path class="cls-1" d="M15.52,37.07s-2.55-19.9,19.9-24.49c0,0-1.02,17.86-19.9,24.49Z"/>
              <path class="cls-1" d="M13.66,21.6S7.48,9.94,23.6,0c0,0,3.09,18.52-9.95,21.6Z"/>
              <path class="cls-1" d="M12.26,32.24S13.29,20,.02,17.45c0,0-1.02,14.29,12.24,14.79Z"/>
            </g>
          </g>
        </g>
      </g>
    </g>
  </g>
</svg>