<?xml version="1.0"?>
<svg xmlns="http://www.w3.org/2000/svg" viewBox="0 0 798.62 149.95" width="798.62" height="149.95"><defs><style>.cls-1{fill:#05aa53;}</style></defs><title>premierbet-logo</title><g id="&#x421;&#x43B;&#x43E;&#x439;_2" data-name="&#x421;&#x43B;&#x43E;&#x439; 2"><g id="&#x421;&#x43B;&#x43E;&#x439;_1-2" data-name="&#x421;&#x43B;&#x43E;&#x439; 1"><path class="cls-1" d="M469.22,119.92a.68.68,0,0,0-.25-.71c-.32-2.76.35-5.42.83-8.1l2.84-11.81,4.76-20a139.14,139.14,0,0,0,4.87-20.08c1.39-3.94,2-8.4,6.84-10l20-.3c4.27.06,8.54.26,12.81.12,2.78-.09,4.77.76,6.06,3.21l.12,1.92c-1.09,1.5-1,3.24-1.09,5-2.69,7.88-4.51,9.11-13,8.86-1.64,0-3.28.09-4.92.15-2.73-.22-5.49-.83-8.18.41a11.42,11.42,0,0,0-1.54,6.22,33.38,33.38,0,0,0,9.75.2c2,.09,3.91.29,5.86.24,3-.07,5.53.6,6.44,3.93-.4,1.6-.75,3.22-1.2,4.81-2.9,10.31-3.69,10.74-14.53,10.59-3.72-.05-7.58-1-11.26.59-1.59,2.37-1.88,4.88-1.83,7.9a103.52,103.52,0,0,0,16.51-.09c6.62,1,7.66,2.45,6.46,8.85-.46,2.44-.82,4.9-1.22,7.36a8,8,0,0,1-5.29,3.35l-19.94.11c-4.1-.08-8.2-.25-12.3-.2C474,122.46,471.23,122.35,469.22,119.92Z"/><path class="cls-1" d="M457.74,119c-2.1,3.11-5.38,3.2-8.62,3.39-3.82-1.07-8.73,1.66-11.46-3.26.45-6.85,3.27-13.2,4.22-19.95l5-20c1.47-5.78,2.8-11.61,4.45-17.34,3.11-10.8,1.08-13.17,15.76-12.62a13.42,13.42,0,0,0,2-.21c6.24,1.5,3.92,6.2,3.77,10.09-3.73,13.25-7.09,26.58-9.81,40.08Z"/><path class="cls-1" d="M24.49,19.36a15.24,15.24,0,0,0,4.71-3.93C41.45,6.61,55.19,1.74,70.12,0l11,0,1,0,2,.14c7.35,1.84,14.81,3.25,21.8,6.37,15.52,6.92,27.1,18.09,35.62,32.63l6.73,16.94a3.47,3.47,0,0,0,.84,3,145.72,145.72,0,0,1,1.37,20,81.57,81.57,0,0,1-14.22,40L127.79,129l-13,10-5.7,3.12A141.47,141.47,0,0,1,89,148.88c-6.59.6-13.18,1.3-19.82,1a131.7,131.7,0,0,1-20.11-4.49l-14.93-7.3a16.87,16.87,0,0,0-5.07-3.76A81.51,81.51,0,0,1,4,99.21a136.21,136.21,0,0,1-4-20A107.41,107.41,0,0,1,1.68,59.31c1.58-7,4.41-13.59,7.32-20.13a.46.46,0,0,0,.27-.59A125.19,125.19,0,0,1,24.49,19.36ZM6.74,79.13a31,31,0,0,0,1.58,11c0,1.58.35,3,3.21,3.61l7.29-14.56L29,59.18a.37.37,0,0,0,.25-.53,157.87,157.87,0,0,0,10-19.4,188.57,188.57,0,0,0,10.32-20A14.75,14.75,0,0,0,53,10.71c-6.92,1.25-12.2,4.46-17.18,8.36a19.9,19.9,0,0,0-6.67,5.26A45.94,45.94,0,0,0,16.89,39.1,52.38,52.38,0,0,0,8.4,59.17l-.2,1C6.65,66.44,5.68,72.7,6.74,79.13ZM54,118a10.76,10.76,0,0,0-4.92,2.17c-5.63,2.08-11.21,4.28-16.18,7.51,1.13,3.27,3,3.17,5,2.42,4.17-1.54,8.33-3.11,12.5-4.67l15.6-5.4a4.69,4.69,0,0,0,3.07-1.11l20-7,20-7,13.94-4.9,7.4-2.61a53.33,53.33,0,0,0,11.29-4.07c.78-5,3.17-9.82,1.25-15.6-5.12,2.08-9.7,3.8-13.92,6.35a159.42,159.42,0,0,0-20,9,73.29,73.29,0,0,0-11.94,5.22,32.63,32.63,0,0,0-8.05,3.82,153.39,153.39,0,0,0-20,9A86.68,86.68,0,0,0,54,118Zm1.06,22.2a33,33,0,0,0,14,2.88,62.5,62.5,0,0,0,40.07-8.71,50.75,50.75,0,0,0,21.93-21.14,85,85,0,0,0-23,4.91A123,123,0,0,0,89,122.88a160.18,160.18,0,0,0-20,5A146.9,146.9,0,0,0,49,133c-1.77.14-3.77-.12-4.27,2.39.78,2,2.56,2.39,4.35,2.74A11.58,11.58,0,0,0,55.08,140.21ZM29,107a40.31,40.31,0,0,0-8.9,8.48c1.25,2.44,2.59,4.48,4.95,5.83a9.14,9.14,0,0,0,4.16-2.6,224.71,224.71,0,0,0,20-13.32,40.44,40.44,0,0,0,9.21-6,57.74,57.74,0,0,0,10.73-7.1,139.27,139.27,0,0,0,18-12l1.94-1.15L109.12,65.9a53.92,53.92,0,0,0,10-6.7A147.67,147.67,0,0,0,138,46.71c-2.11-4.9-4.32-9.1-7.74-12.58a36.69,36.69,0,0,0-10.6-11.3L89.16,51.36a49.94,49.94,0,0,0-8.28,7.73A92.13,92.13,0,0,0,69,70a66,66,0,0,0-9.94,9.16l-9.93,9.14A71.62,71.62,0,0,0,39,97.87,60.35,60.35,0,0,0,29,107Z"/><path class="cls-1" d="M798.61,59.22c-.55,2.43-1.21,4.84-1.63,7.29-1.11,6.56-3.57,11.91-11.17,12.46l-3,12.75c2.1,2.12,4.11,4.32,4.4,7.47-2,6.81-1.58,14.49-7.33,19.91a23.3,23.3,0,0,1-10.8,2.88c-2.13-.2-4.26-.44-6.4-.59-6.77-.46-10.57-3.91-11.67-10.62a28.2,28.2,0,0,1-.05-8.42c1.16-8.56,4.09-16.71,5.76-25.09-3.94-7.36-.86-19.8,6.78-27,.64-3.89,1.6-7.92,4.53-11.11l1.11-.89c6.54-2.46,13.24-2.37,20-1.27l3,2.17c2.17,3.57,2.31,7.38,1,11.59C796.71,52.44,798.74,55.18,798.61,59.22Zm-18.33,40c-.57-2.25-3.63-.45-4.47-3.56,0-5.07,2.79-10.56,3.19-16.46,1.12-1.82,1.14-4.23,3-5.67,7.77-2.09,10.31-6.17,9.84-15.88a2.44,2.44,0,0,0-2.71-.63c-1.11-.6-2.78.55-3.7-1.46.28-3.87,3-7.83,1.63-12.31-11.17-2.41-18.75-.09-18.27,12.24-1.69,1.91-3.65,1.31-5.09,3.75a57.54,57.54,0,0,0-2.87,12.27l2.66,3-.43,4.63a142.62,142.62,0,0,0-5,20c-3.84,12.12-.87,16.42,11,16,6.16.27,8.34-1.13,9.62-6.72C779.41,105.42,780.55,102.43,780.28,99.22Z"/><path class="cls-1" d="M728.88,120.5a80.93,80.93,0,0,1-19.78,2.68c-14.93-1.62-26.59-7.18-28.86-24a89.07,89.07,0,0,1,2.87-20l6.1-11.77,7.26-8.07a72.08,72.08,0,0,1,12.6-7.44c6.5-1.9,13.07-3.08,19.88-2.22a26.48,26.48,0,0,1,15.32,9.48c4.44,7.15,4.82,15,4,23.07-1.21,4.37-1.35,9.18-5.25,12.52l.7,4.4c-2.1,6.62-2,14.3-8.75,18.74Zm.31-29c9.86.91,12.24-1.38,12.77-12.31,1.43-11.64-3.11-20.57-12-22.72A26.07,26.07,0,0,0,712,58l-2.94,1.15c-9.28,3.85-15,11-18.75,20a21.83,21.83,0,0,0-2.52,8.88c-4.36,17.13,3.88,28.08,21.25,28.22,6.95.72,13.69.08,20-3.05,5.55-2.48,8.56-8.94,7.36-15.93-2.81-.78-5.12.5-7.39,1.89a60.21,60.21,0,0,1-19.93.76l-2.07-1.12c-1.67-1.64-4.15-2.92-2.73-5.9,1.39-1.38,3.19-.64,4.69-1.17A138.57,138.57,0,0,0,729.19,91.51Z"/><path class="cls-1" d="M673,99.16,669,106.93a54.27,54.27,0,0,1-11.88,11.28l-8,2.87-20,1a90.44,90.44,0,0,0-20.12-.21c-3.39-.23-6.6-.87-8.86-3.76-3.18-6.45-.15-12.64.8-18.92l5-20,9.94-40c1.46-7.3,5.53-11.78,13.27-12.3h19.95c6.74.13,13.47.27,19.94,2.51,4.51,2.37,8.47,5.36,11.23,9.75,2.81,6.55,2.43,13.27,1.12,20-2.09,5.45-4.77,10.53-9.16,14.73l2.5,5.41C676.11,86.13,674.93,92.68,673,99.16ZM629.13,33.5c-3.77,0-6.08,1.59-6.28,5.58a141.42,141.42,0,0,0-5,20,141.13,141.13,0,0,0-5,20c-3.16,11.57-6.77,23.05-8.09,34.7,1,.81,1.39,1.3,1.81,1.37a14,14,0,0,0,2.45,0h20c6.69.21,13.41.9,20-1.11,8-2,13.08-7.41,16.39-14.71,3.35-6.5,5.48-13.11,1.83-20.25-.28-2.84-3.43-3.74-4.34-6.18,1.82-2.18,5-2.65,6.25-5.31a15.23,15.23,0,0,0,5-8.39c5-12.12.83-21.76-10.88-24.85a38.28,38.28,0,0,0-14.25-.88Z"/><path class="cls-1" d="M571.58,119l-2.6,3c-4.63,1.74-8.44-.28-12.16-2.68l-6.83-9c-1.12-2-2.58-3.35-5.36-3.06-2.73,3.51-2.91,7.81-3.3,12-3,5.12-8.12,2.26-12.22,3.23-3-.48-6.5.35-8.24-3.27.43-6.87,3.56-13.16,4.23-20,4-13.16,7.33-26.48,10.21-39.92,1.29-7.82,5.89-11.25,13.74-10.36l20,.38c5.73,1.79,10.79,4.53,13.95,9.93,2.49,6.79.23,13.3-1.15,19.86-2.79,7.5-8.42,12.83-14.08,17.69a2.87,2.87,0,0,0,2.13,2.49c4.89,2.64,6,6.47,3.95,11.58A74.24,74.24,0,0,0,571.58,119ZM551.3,79.17c-.41,1.56-1.48,3-.76,4.74,5.09.64,6.8-.19,9.69-4.67,2.37-2.67,3.64-5.46,1-8.76-2.41-.63-4.74-1.62-7.27-.05C552,72.95,551.9,76.15,551.3,79.17Z"/><path class="cls-1" d="M369.12,122.43c-2.86-.34-6-.12-7.61-3.26.38-6.84,3.13-13.19,4.11-19.9,3.44-13.29,6.93-26.56,9.54-40a20,20,0,0,0,.88-2.28c1.82-7.11,2.74-7.87,10.14-8.32,1-.06,1.95-.25,2.92-.38,3.9.17,6.35,2.11,7.61,5.83.78,2.31,2,4.49,3,6.73l5.76,14.37a9.13,9.13,0,0,0,3.67-4l9.82-12c3.61-3.15,5.46-8.06,10.16-10.11,3.27,0,6.54-.12,9.8.05,3.89.2,5.47,2.48,5,6.26-.17,1.28-.45,2.55-.68,3.82a140.75,140.75,0,0,0-5,20,151.87,151.87,0,0,0-5,20c-1.37,5.11-2.81,10.21-4.1,15.34-1.5,6-3.4,7.68-9.71,7.61-3.42,0-7,.88-10.2-1.17l-.91-1.77c1.11-8.71,4.3-17,6-26-3.71,1.8-5.73,4.74-8.22,7.1-5.78,5.49-7.6,5.37-11.92-1.11a39.15,39.15,0,0,0-5.64-10.55A299.29,299.29,0,0,0,380.75,119C377.77,123.25,373.14,121.8,369.12,122.43Z"/><path class="cls-1" d="M176.81,79.21l4.8-19.81,4.89-20.13c.94-2.8,1.61-5.71,3.48-8.12,5.53-5.08,12.54-3.77,19.1-4.42l20-.07a31.46,31.46,0,0,1,18.83,7.59l4.91,6.27a38,38,0,0,1,1.56,18.63C251.11,75,242.6,86.88,227.9,94.06c-8,2.1-16,3.66-24.41,2.82-5.13-.51-7.38,1.9-8.28,7.12-.81,4.69-1,9.54-3.33,13.87l-4.2,3.06c-6.14-.26-12.43,1.75-18.41-1.15l-.85-2.06c.77-11.1,5-21.45,7-32.26C175.84,83.36,176.35,81.29,176.81,79.21Zm31.61-20a71.16,71.16,0,0,0-1.67,7.23c-.37,2.82,1,4.75,3.82,5.56,9.11,2.59,17.53-3.24,18.42-12.78.59-3.39-.13-6.25-3.32-8.06C217.72,46.61,210.1,50.17,208.42,59.17Z"/><path class="cls-1" d="M723.27,76.25c-3.81,2.44-7.54,1.68-11.58.61,1-3.47,3.56-4,6.21-4.15C720.24,72.62,722.53,73.09,723.27,76.25Z"/><path class="cls-1" d="M308.93,54.62l2.59,4.68c1.87,6.85-.26,13.29-2.06,19.76l-1.32,3.14c-2.89,5.77-8.4,9.31-12.5,13.94a7.46,7.46,0,0,0,4.22,3.17l3.54,2.7c-1,6.25-2,11.85-4.45,17.11-2.85,2.87-6.24,2.6-9.74,1.64l-3-1.62c-5-3.72-6.25-11-12.66-13.56-4.32,3.82-3.09,9.16-4.56,13.59l-.94,1a33.6,33.6,0,0,1-17.8-.07l-.8-1a10.51,10.51,0,0,1,.2-5.83c2.86-11.34,5.61-22.71,8.4-34.06a128.13,128.13,0,0,0,5.09-20c1.79-3.73,1.6-8.56,6-10.87l20-.61C296.48,47.85,303.41,49.22,308.93,54.62Zm-21.54,24.7c2.57-3,4.56-6.07,1.77-9.94-2.4-.63-4.58-1.61-7.18-.14-2.15,2.77-2.4,6.4-2.87,9.95-.77,1.28-1.51,2.56-.24,3.92C283.86,83,284.25,82.84,287.39,79.32Z"/><path class="cls-1" d="M349.11,122.07a143.94,143.94,0,0,0-20,.06c-4.27,0-8.54-.17-12.81-.11-2.83,0-5.16-.74-6.83-3.11-.59-7.77,2.9-14.78,4.24-22.19,1.06-5.83,2.64-11.56,4-17.34l4.89-20.07c1.37-4,1.57-8.82,6.69-10.46l19.85-.66c3.92,0,7.85.17,11.77.08,2.54-.05,4.89.22,6.84,2,.64,1.92.26,3.87.15,5.81-.91.87-.79,2-.72,3.09-2.67,7.17-4.1,8.1-12.09,8-2,0-4,.12-5.93.19-2.59-.3-5.19-.75-7.67.31-1.55,1.85-1.58,4-1.6,6.25,3.08.89,6.15.59,9.23.27,2.12.09,4.23.26,6.35.25,3.32,0,5.72,1.16,6.49,4.66-.67,2.2-1.36,4.4-2,6.61-2,6.72-3.66,8-10.83,8.53-4.75-.12-9.52-.73-14.19.08a11,11,0,0,0-1.7,7.6c7.22,2.29,15.2-1.74,22.37,2.26,1.75,5.24-.56,10-1.1,14.82C353.13,120.87,351,121.21,349.11,122.07Z"/><path class="cls-1" d="M647.9,87.26l0,2.87c-3.4,6.06-10,7.93-17.81,5l-.24-3a12.64,12.64,0,0,0,.88-2.32c.63-3.65,2.35-6.32,6.33-6.53S645.57,82.5,647.9,87.26Z"/><path class="cls-1" d="M649.08,51.29c3.36.8,5.35,2.6,4.65,6.37a10.53,10.53,0,0,1-4.65,3.77c-3.31-.76-7.45,2.15-9.95-2.24C641,52.09,641.62,51.57,649.08,51.29Z"/></g></g></svg>
